<svg width="24" height="24" viewBox="0 0 24 24" fill="none" xmlns="http://www.w3.org/2000/svg">
<path d="M10.9508 15.0998L13.5508 12.4998L16.1508 15.0998L16.6508 14.5998L14.0508 11.9998L16.6508 9.3998L16.1508 8.8998L13.5508 11.4998L10.9508 8.8998L10.4508 9.3998L13.0508 11.9998L10.4508 14.5998L10.9508 15.0998ZM9.22578 18.6998C8.98828 18.6998 8.76328 18.6489 8.55078 18.5471C8.33828 18.4452 8.16328 18.3045 8.02578 18.1248L3.30078 11.9998L8.02578 5.8748C8.16328 5.69514 8.33828 5.55439 8.55078 5.45255C8.76328 5.35072 8.98828 5.2998 9.22578 5.2998H19.2008C19.6133 5.2998 19.9664 5.44664 20.2603 5.7403C20.5539 6.03414 20.7008 6.3873 20.7008 6.7998V17.1998C20.7008 17.6123 20.5539 17.9654 20.2603 18.2591C19.9664 18.5529 19.6133 18.6998 19.2008 18.6998H9.22578ZM4.17578 11.9998L8.57578 17.6998C8.65911 17.7998 8.75495 17.8748 8.86328 17.9248C8.97161 17.9748 9.09245 17.9998 9.22578 17.9998H19.2008C19.4341 17.9998 19.6258 17.9248 19.7758 17.7748C19.9258 17.6248 20.0008 17.4331 20.0008 17.1998V6.7998C20.0008 6.56647 19.9258 6.3748 19.7758 6.2248C19.6258 6.0748 19.4341 5.9998 19.2008 5.9998H9.22578C9.09245 5.9998 8.97161 6.0248 8.86328 6.0748C8.75495 6.1248 8.65911 6.1998 8.57578 6.2998L4.17578 11.9998Z" fill="#0E100A"/>
</svg>
