<svg width="24" height="24" viewBox="0 0 24 24" fill="none" xmlns="http://www.w3.org/2000/svg">
<path d="M14.212 19.0001C13.387 19.0001 12.6808 18.7064 12.0933 18.1189C11.5058 17.5314 11.212 16.8251 11.212 16.0001C11.212 15.1751 11.5058 14.4689 12.0933 13.8814C12.6808 13.2939 13.387 13.0001 14.212 13.0001C14.5954 13.0001 14.9592 13.0684 15.3035 13.2049C15.6477 13.3414 15.9505 13.5462 16.212 13.8194V4.69238H21.0968V7.00013H17.212V16.0001C17.212 16.8251 16.9183 17.5314 16.3308 18.1189C15.7433 18.7064 15.037 19.0001 14.212 19.0001ZM2.9043 16.0001C2.9043 14.4398 3.2018 12.9754 3.7968 11.6069C4.39163 10.2382 5.20188 9.04113 6.22755 8.01563C7.25321 6.98997 8.45221 6.17963 9.82455 5.58463C11.1969 4.9898 12.6594 4.69238 14.212 4.69238V5.69238C12.8069 5.69238 11.4769 5.96297 10.222 6.50413C8.96705 7.0453 7.87113 7.78405 6.9343 8.72038C5.9973 9.65655 5.25805 10.7475 4.71655 11.9931C4.17505 13.2386 3.9043 14.5743 3.9043 16.0001H2.9043ZM7.0583 16.0001C7.0583 15.0155 7.2483 14.0873 7.6283 13.2156C8.0083 12.344 8.52246 11.5841 9.1708 10.9361C9.81913 10.288 10.5755 9.77763 11.44 9.40513C12.3044 9.03263 13.2284 8.84638 14.212 8.84638V9.84638C12.5069 9.84638 11.055 10.4446 9.8563 11.6411C8.65763 12.8378 8.0583 14.2908 8.0583 16.0001H7.0583Z" fill="#0E100A"/>
</svg>
