<svg width="24" height="24" viewBox="0 0 24 24" fill="none" xmlns="http://www.w3.org/2000/svg">
<path d="M12.1923 14.6923C12.7513 14.6923 13.2243 14.4987 13.6115 14.1115C13.9987 13.7243 14.1923 13.2513 14.1923 12.6923V6.9615H16.923V5.423H13.423V11.2308C13.2577 11.0513 13.0724 10.9167 12.8673 10.827C12.6621 10.7372 12.4371 10.6923 12.1923 10.6923C11.6333 10.6923 11.1602 10.8858 10.773 11.273C10.3858 11.6602 10.1923 12.1333 10.1923 12.6923C10.1923 13.2513 10.3858 13.7243 10.773 14.1115C11.1602 14.4987 11.6333 14.6923 12.1923 14.6923ZM8.1155 17C7.65517 17 7.27083 16.8458 6.9625 16.5375C6.65417 16.2292 6.5 15.8448 6.5 15.3845V4.6155C6.5 4.15517 6.65417 3.77083 6.9625 3.4625C7.27083 3.15417 7.65517 3 8.1155 3H18.8845C19.3448 3 19.7292 3.15417 20.0375 3.4625C20.3458 3.77083 20.5 4.15517 20.5 4.6155V15.3845C20.5 15.8448 20.3458 16.2292 20.0375 16.5375C19.7292 16.8458 19.3448 17 18.8845 17H8.1155ZM8.1155 16H18.8845C19.0385 16 19.1796 15.9359 19.3077 15.8077C19.4359 15.6796 19.5 15.5385 19.5 15.3845V4.6155C19.5 4.4615 19.4359 4.32042 19.3077 4.19225C19.1796 4.06408 19.0385 4 18.8845 4H8.1155C7.9615 4 7.82042 4.06408 7.69225 4.19225C7.56408 4.32042 7.5 4.4615 7.5 4.6155V15.3845C7.5 15.5385 7.56408 15.6796 7.69225 15.8077C7.82042 15.9359 7.9615 16 8.1155 16ZM5.1155 20C4.65517 20 4.27083 19.8458 3.9625 19.5375C3.65417 19.2292 3.5 18.8449 3.5 18.3848V6.6155H4.5V18.3848C4.5 18.5386 4.56408 18.6796 4.69225 18.8077C4.82042 18.9359 4.9615 19 5.1155 19H16.8845V20H5.1155Z" fill="#0E100A"/>
</svg>
