<svg width="24" height="24" viewBox="0 0 24 24" fill="none" xmlns="http://www.w3.org/2000/svg">
<path d="M21.1097 22.5307L13.5732 14.9942C12.9579 15.53 12.482 15.9557 12.1455 16.2712C11.809 16.5865 11.5474 16.857 11.3607 17.0827C11.1742 17.3083 11.0355 17.5278 10.9445 17.7412C10.8535 17.9547 10.7413 18.2422 10.608 18.6037C10.2746 19.5575 9.79864 20.2787 9.17997 20.7672C8.56147 21.2557 7.82847 21.4999 6.98097 21.4999C6.09897 21.4999 5.33039 21.2172 4.67522 20.6519C4.02005 20.0864 3.6348 19.3691 3.51947 18.4999H4.55797C4.6733 19.0756 4.96205 19.5528 5.42422 19.9317C5.88639 20.3105 6.4053 20.4999 6.98097 20.4999C7.61297 20.4999 8.14339 20.3172 8.57222 19.9519C9.00122 19.5864 9.37847 18.9883 9.70397 18.1577C9.8618 17.7462 9.99964 17.4141 10.1175 17.1614C10.2355 16.9089 10.3957 16.6586 10.5982 16.4104C10.8009 16.1624 11.0766 15.8807 11.4252 15.5654C11.7739 15.2499 12.2541 14.8236 12.8657 14.2864L5.08097 6.50191C4.91947 6.80058 4.79189 7.11758 4.69822 7.45291C4.60472 7.78808 4.54514 8.13708 4.51947 8.49991H3.51947C3.54514 7.99091 3.62847 7.506 3.76947 7.04516C3.91047 6.58416 4.09639 6.15175 4.32722 5.74791L1.88672 3.30766L2.60022 2.59417L21.8232 21.8172L21.1097 22.5307ZM18.2465 15.4287L17.533 14.7154C18.1675 13.8679 18.6508 12.9612 18.983 11.9952C19.315 11.0292 19.481 10.0307 19.481 8.99991C19.481 7.80891 19.2742 6.66983 18.8607 5.58266C18.4474 4.4955 17.8349 3.50125 17.0232 2.59991L17.7425 1.93066C18.622 2.90383 19.2983 4.00033 19.7715 5.22016C20.2445 6.44 20.481 7.69991 20.481 8.99991C20.481 10.1652 20.2906 11.2941 19.9097 12.3864C19.5291 13.4787 18.9746 14.4928 18.2465 15.4287ZM15.5407 12.7229L14.783 11.9654C15.0175 11.5051 15.1925 11.0262 15.308 10.5287C15.4233 10.0313 15.481 9.52175 15.481 8.99991C15.481 7.45508 14.9506 6.15217 13.8897 5.09117C12.8287 4.03033 11.5258 3.49991 9.98097 3.49991C9.4708 3.49991 8.97205 3.56691 8.48472 3.70091C7.99755 3.83491 7.53672 4.02941 7.10222 4.28441L6.35797 3.54041C6.88997 3.19541 7.46364 2.93575 8.07897 2.76142C8.69447 2.58708 9.32847 2.49991 9.98097 2.49991C11.8361 2.49991 13.3832 3.1195 14.6222 4.35866C15.8614 5.59766 16.481 7.14475 16.481 8.99991C16.481 9.68575 16.4031 10.3406 16.2472 10.9644C16.0916 11.5881 15.8561 12.1742 15.5407 12.7229ZM12.079 9.26142L9.71372 6.89616C9.75855 6.88833 9.80214 6.88441 9.84447 6.88441H9.98097C10.5785 6.88441 11.0804 7.08767 11.4867 7.49416C11.8932 7.9005 12.0965 8.40241 12.0965 8.99991C12.0965 9.04858 12.0955 9.09316 12.0935 9.13366C12.0916 9.174 12.0868 9.21658 12.079 9.26142ZM9.98097 11.1154C9.38347 11.1154 8.88155 10.9112 8.47522 10.5029C8.06889 10.0946 7.86572 9.59358 7.86572 8.99991C7.86572 8.83458 7.88105 8.67433 7.91172 8.51917C7.94255 8.364 7.99705 8.214 8.07522 8.06917L10.9175 10.9114C10.7726 10.9857 10.6217 11.0383 10.4647 11.0692C10.3076 11.1 10.1463 11.1154 9.98097 11.1154Z" fill="#0E100A"/>
</svg>
