<svg width="24" height="24" viewBox="0 0 24 24" fill="none" xmlns="http://www.w3.org/2000/svg">
<path d="M11.994 21C10.7595 21 9.59575 20.7642 8.50275 20.2925C7.40975 19.8208 6.45517 19.177 5.639 18.361C4.823 17.5448 4.17917 16.5903 3.7075 15.4973C3.23583 14.4043 3 13.2405 3 12.006C3 10.7567 3.23683 9.58625 3.7105 8.49475C4.18433 7.40342 4.82733 6.45167 5.6395 5.6395C6.45167 4.82733 7.40592 4.18433 8.50225 3.7105C9.59842 3.23683 10.7622 3 11.9938 3C13.2403 3 14.41 3.23683 15.503 3.7105C16.5958 4.18433 17.5483 4.82733 18.3605 5.6395C19.1727 6.45167 19.8157 7.40342 20.2895 8.49475C20.7632 9.58625 21 10.7567 21 12.006C21 13.2405 20.7632 14.4052 20.2895 15.5C19.8157 16.5948 19.1727 17.5483 18.3605 18.3605C17.5483 19.1727 16.5966 19.8157 15.5053 20.2895C14.4138 20.7632 13.2433 21 11.994 21ZM7.5 12.5385C7.7885 12.5385 8.03367 12.4375 8.2355 12.2355C8.4375 12.0337 8.5385 11.7885 8.5385 11.5C8.5385 11.2115 8.4375 10.9663 8.2355 10.7645C8.03367 10.5625 7.7885 10.4615 7.5 10.4615C7.2115 10.4615 6.96633 10.5625 6.7645 10.7645C6.5625 10.9663 6.4615 11.2115 6.4615 11.5C6.4615 11.7885 6.5625 12.0337 6.7645 12.2355C6.96633 12.4375 7.2115 12.5385 7.5 12.5385ZM16.5 12.5385C16.7885 12.5385 17.0337 12.4375 17.2355 12.2355C17.4375 12.0337 17.5385 11.7885 17.5385 11.5C17.5385 11.2115 17.4375 10.9663 17.2355 10.7645C17.0337 10.5625 16.7885 10.4615 16.5 10.4615C16.2115 10.4615 15.9663 10.5625 15.7645 10.7645C15.5625 10.9663 15.4615 11.2115 15.4615 11.5C15.4615 11.7885 15.5625 12.0337 15.7645 12.2355C15.9663 12.4375 16.2115 12.5385 16.5 12.5385ZM9 17.0385C9.2885 17.0385 9.53367 16.9375 9.7355 16.7355C9.9375 16.5337 10.0385 16.2885 10.0385 16C10.0385 15.7115 9.9375 15.4663 9.7355 15.2645C9.53367 15.0625 9.2885 14.9615 9 14.9615C8.7115 14.9615 8.46633 15.0625 8.2645 15.2645C8.0625 15.4663 7.9615 15.7115 7.9615 16C7.9615 16.2885 8.0625 16.5337 8.2645 16.7355C8.46633 16.9375 8.7115 17.0385 9 17.0385ZM15 17.0385C15.2885 17.0385 15.5337 16.9375 15.7355 16.7355C15.9375 16.5337 16.0385 16.2885 16.0385 16C16.0385 15.7115 15.9375 15.4663 15.7355 15.2645C15.5337 15.0625 15.2885 14.9615 15 14.9615C14.7115 14.9615 14.4663 15.0625 14.2645 15.2645C14.0625 15.4663 13.9615 15.7115 13.9615 16C13.9615 16.2885 14.0625 16.5337 14.2645 16.7355C14.4663 16.9375 14.7115 17.0385 15 17.0385ZM10.5 8.5385H13.5C13.7923 8.5385 14.0385 8.4385 14.2385 8.2385C14.4385 8.0385 14.5385 7.79233 14.5385 7.5C14.5385 7.20767 14.4385 6.9615 14.2385 6.7615C14.0385 6.5615 13.7923 6.4615 13.5 6.4615H10.5C10.2077 6.4615 9.9615 6.5615 9.7615 6.7615C9.5615 6.9615 9.4615 7.20767 9.4615 7.5C9.4615 7.79233 9.5615 8.0385 9.7615 8.2385C9.9615 8.4385 10.2077 8.5385 10.5 8.5385ZM12 20C14.2167 20 16.1042 19.2208 17.6625 17.6625C19.2208 16.1042 20 14.2167 20 12C20 9.78333 19.2208 7.89583 17.6625 6.3375C16.1042 4.77917 14.2167 4 12 4C9.78333 4 7.89583 4.77917 6.3375 6.3375C4.77917 7.89583 4 9.78333 4 12C4 14.2167 4.77917 16.1042 6.3375 17.6625C7.89583 19.2208 9.78333 20 12 20Z" fill="#0E100A"/>
</svg>
