<svg width="24" height="24" viewBox="0 0 24 24" fill="none" xmlns="http://www.w3.org/2000/svg">
<path d="M5.41925 19.2884L4.7115 18.5807L14.7923 8.49993H10.5V10.4999H9.5V7.49993H15.6713C15.7328 7.49993 15.7923 7.51143 15.85 7.53443C15.9077 7.55759 15.9577 7.59034 16 7.63268L19.0963 10.7229C19.5718 11.1986 20.1153 11.5774 20.727 11.8594C21.3385 12.1416 21.9936 12.2846 22.6923 12.2884V13.2884C21.8513 13.2884 21.0708 13.1237 20.351 12.7942C19.6312 12.4647 18.9847 12.0153 18.4115 11.4462L17.1423 10.1654L14.0385 13.2499L16.1923 15.4037L10.6423 18.6212L10.1423 17.7229L14.5385 15.1904L12.0308 12.6827L5.41925 19.2884ZM4 12.4999V11.4999H8V12.4999H4ZM2 9.49993V8.49993H6V9.49993H2ZM19.475 7.49993C19.0532 7.49993 18.6936 7.35218 18.3963 7.05668C18.0988 6.76118 17.95 6.40251 17.95 5.98067C17.95 5.55884 18.0988 5.20018 18.3963 4.90468C18.6936 4.60918 19.0532 4.46143 19.475 4.46143C19.8968 4.46143 20.2564 4.60918 20.5538 4.90468C20.8513 5.20018 21 5.55884 21 5.98067C21 6.40251 20.8513 6.76118 20.5538 7.05668C20.2564 7.35218 19.8968 7.49993 19.475 7.49993ZM4 6.49993V5.49993H8V6.49993H4Z" fill="#0E100A"/>
</svg>
