<svg width="24" height="24" viewBox="0 0 24 24" fill="none" xmlns="http://www.w3.org/2000/svg">
<path d="M3 21V20C3.83083 20 4.65008 19.9564 5.45775 19.8693C6.26542 19.7821 7.05967 19.5859 7.8405 19.2808C7.99433 19.2166 8.06483 19.098 8.052 18.925C8.03917 18.752 7.92375 18.6398 7.70575 18.5885C6.91342 18.359 6.26442 17.9363 5.75875 17.3203C5.25292 16.7043 5 15.9904 5 15.1788V13.6923H8.3845C8.564 13.6923 8.7115 13.6346 8.827 13.5193C8.94233 13.4039 9 13.2565 9 13.077V10.8845H11.6827C11.9134 10.8845 12.0897 10.7916 12.2115 10.6058C12.3333 10.4199 12.343 10.2244 12.2405 10.0193L9.44625 4.23851L10.3423 3.78076L13.1557 9.60001C13.4122 10.1385 13.3872 10.6539 13.0807 11.1463C12.7744 11.6384 12.3168 11.8845 11.7078 11.8845H10V13.1923C10 13.6141 9.85542 13.9696 9.56625 14.2588C9.27725 14.5478 8.92183 14.6923 8.5 14.6923H6V15.2173C6 15.8263 6.20483 16.3516 6.6145 16.7933C7.024 17.2349 7.52942 17.5308 8.13075 17.6808L8.43075 17.7558C8.95642 17.8968 9.2385 18.2622 9.277 18.852C9.31533 19.4417 9.05375 19.8519 8.49225 20.0828C7.62042 20.4533 6.72333 20.6988 5.801 20.8193C4.8785 20.9398 3.94483 21 3 21ZM15.9345 18.5923L15.2212 17.8845C15.6352 17.4705 15.9519 17.0023 16.1712 16.4798C16.3904 15.9574 16.5 15.4103 16.5 14.8385C16.5 14.2667 16.3904 13.7195 16.1712 13.197C15.9519 12.6747 15.6352 12.2064 15.2212 11.7923L15.9345 11.0788C16.4295 11.5738 16.8142 12.1433 17.0885 12.7875C17.3628 13.4317 17.5 14.1153 17.5 14.8385C17.5 15.5615 17.3628 16.2442 17.0885 16.8865C16.8142 17.5288 16.4295 18.0974 15.9345 18.5923ZM18.3365 21L17.623 20.2865C18.3525 19.557 18.9118 18.7278 19.301 17.799C19.69 16.8702 19.8845 15.8833 19.8845 14.8385C19.8845 13.7898 19.69 12.802 19.301 11.875C18.9118 10.948 18.3525 10.1198 17.623 9.39051L18.3365 8.67701C19.1597 9.50001 19.7902 10.4391 20.228 11.4943C20.6657 12.5494 20.8845 13.6642 20.8845 14.8385C20.8845 16.009 20.6657 17.1228 20.228 18.1798C19.7902 19.2369 19.1597 20.177 18.3365 21Z" fill="#0E100A"/>
</svg>
