<svg width="24" height="24" viewBox="0 0 24 24" fill="none" xmlns="http://www.w3.org/2000/svg">
<path d="M12 16.4615C12.1743 16.4615 12.3205 16.4025 12.4385 16.2845C12.5565 16.1667 12.6155 16.0206 12.6155 15.8462C12.6155 15.6717 12.5565 15.5256 12.4385 15.4078C12.3205 15.2898 12.1743 15.2308 12 15.2308C11.8257 15.2308 11.6795 15.2898 11.5615 15.4078C11.4435 15.5256 11.3845 15.6717 11.3845 15.8462C11.3845 16.0206 11.4435 16.1667 11.5615 16.2845C11.6795 16.4025 11.8257 16.4615 12 16.4615ZM11.5 13.1538H12.5V7.15375H11.5V13.1538ZM12.0033 21C10.7588 21 9.58867 20.7638 8.493 20.2915C7.3975 19.8192 6.4445 19.1782 5.634 18.3685C4.8235 17.5588 4.18192 16.6067 3.70925 15.512C3.23642 14.4175 3 13.2479 3 12.0033C3 10.7588 3.23617 9.58867 3.7085 8.493C4.18083 7.3975 4.82183 6.4445 5.6315 5.634C6.44117 4.8235 7.39333 4.18192 8.488 3.70925C9.5825 3.23642 10.7521 3 11.9967 3C13.2413 3 14.4113 3.23617 15.507 3.7085C16.6025 4.18083 17.5555 4.82183 18.366 5.6315C19.1765 6.44117 19.8181 7.39333 20.2908 8.488C20.7636 9.5825 21 10.7521 21 11.9967C21 13.2413 20.7638 14.4113 20.2915 15.507C19.8192 16.6025 19.1782 17.5555 18.3685 18.366C17.5588 19.1765 16.6067 19.8181 15.512 20.2908C14.4175 20.7636 13.2479 21 12.0033 21ZM12 20C14.2333 20 16.125 19.225 17.675 17.675C19.225 16.125 20 14.2333 20 12C20 9.76667 19.225 7.875 17.675 6.325C16.125 4.775 14.2333 4 12 4C9.76667 4 7.875 4.775 6.325 6.325C4.775 7.875 4 9.76667 4 12C4 14.2333 4.775 16.125 6.325 17.675C7.875 19.225 9.76667 20 12 20Z" fill="#0E100A"/>
</svg>
